<?xml version="1.0" encoding="UTF-8" standalone="no"?>
<!-- Created with Inkscape (http://www.inkscape.org/) -->

<svg
   width="1024"
   height="1024"
   viewBox="0 0 270.93333 270.93333"
   version="1.1"
   id="svg1"
   inkscape:export-filename="Logo.svg"
   inkscape:export-xdpi="96"
   inkscape:export-ydpi="96"
   inkscape:version="1.4.2 (f4327f4, 2025-05-13)"
   sodipodi:docname="favicon.svg"
   xmlns:inkscape="http://www.inkscape.org/namespaces/inkscape"
   xmlns:sodipodi="http://sodipodi.sourceforge.net/DTD/sodipodi-0.dtd"
   xmlns:xlink="http://www.w3.org/1999/xlink"
   xmlns="http://www.w3.org/2000/svg"
   xmlns:svg="http://www.w3.org/2000/svg">
  <sodipodi:namedview
     id="namedview1"
     pagecolor="#ffffff"
     bordercolor="#000000"
     borderopacity="0.25"
     inkscape:showpageshadow="2"
     inkscape:pageopacity="0.0"
     inkscape:pagecheckerboard="true"
     inkscape:deskcolor="#d1d1d1"
     inkscape:document-units="px"
     showgrid="true"
     inkscape:zoom="1.6168981"
     inkscape:cx="396.74733"
     inkscape:cy="532.19186"
     inkscape:window-width="3840"
     inkscape:window-height="2054"
     inkscape:window-x="2869"
     inkscape:window-y="-11"
     inkscape:window-maximized="1"
     inkscape:current-layer="layer1" />
  <defs
     id="defs1">
    <linearGradient
       id="linearGradient15"
       inkscape:collect="always">
      <stop
         style="stop-color:#ffb64a;stop-opacity:1;"
         offset="0"
         id="stop16" />
      <stop
         style="stop-color:#e85d1a;stop-opacity:1;"
         offset="1"
         id="stop17" />
    </linearGradient>
    <linearGradient
       inkscape:collect="always"
       xlink:href="#linearGradient15"
       id="linearGradient17"
       x1="0.32727361"
       y1="0.65454549"
       x2="271.30908"
       y2="304.72519"
       gradientUnits="userSpaceOnUse"
       gradientTransform="scale(1,0.8938408)" />
  </defs>
  <g
     inkscape:label="Layer 1"
     inkscape:groupmode="layer"
     id="layer1">
    <rect
       style="fill:url(#linearGradient17);fill-opacity:1;stroke:none;stroke-width:0.264721;stroke-dasharray:none"
       id="rect3"
       width="271.26059"
       height="271.42422"
       x="5.4541015e-06"
       y="5.4541015e-06"
       inkscape:label="BG" />
    <path
       id="path2"
       style="fill:#ffffff;fill-opacity:1;stroke-width:0.264583"
       inkscape:label="C Outline"
       d="M 135.46666 29.633333 A 105.83333 105.83333 0 0 0 29.633333 135.46666 A 105.83333 105.83333 0 0 0 135.46666 241.3 A 105.83333 105.83333 0 0 0 213.29861 207.18063 L 195.54103 187.34619 A 79.375 79.375 0 0 1 135.46666 214.84166 A 79.375 79.375 0 0 1 56.091666 135.46666 A 79.375 79.375 0 0 1 135.46666 56.091666 A 79.375 79.375 0 0 1 196.03144 84.160753 L 213.76008 64.256542 A 105.83333 105.83333 0 0 0 135.46666 29.633333 z " />
    <path
       id="circle20"
       style="fill:#ffffff;fill-opacity:1;stroke-width:0.264583"
       inkscape:label="C Inner 2"
       d="M 135.46666 82.549999 A 52.916664 52.916664 0 0 0 82.549999 135.46666 A 52.916664 52.916664 0 0 0 135.46666 188.38333 A 52.916664 52.916664 0 0 0 177.67184 167.38668 L 159.32826 146.89697 A 26.458332 26.458332 0 0 1 135.46666 161.925 A 26.458332 26.458332 0 0 1 109.00833 135.46666 A 26.458332 26.458332 0 0 1 135.46666 109.00833 A 26.458332 26.458332 0 0 1 159.73082 124.91744 L 178.16948 104.21534 A 52.916664 52.916664 0 0 0 135.46666 82.549999 z " />
    <rect
       style="fill:#ffffff;fill-opacity:1;stroke:none;stroke-width:0.236572;stroke-dasharray:none"
       id="rect24"
       width="13.263805"
       height="78.528412"
       x="-0.39218128"
       y="-297.48135"
       transform="matrix(0.69106754,-0.72279018,-0.69126534,-0.72260102,0,0)"
       rx="1.1136131" />
    <rect
       style="fill:#ffffff;fill-opacity:1;stroke:none;stroke-width:0.235877;stroke-dasharray:none"
       id="rect1"
       width="13.052341"
       height="78.29731"
       x="-203.47816"
       y="37.550846"
       transform="matrix(-0.66707951,-0.74498653,0.66728233,-0.74480487,0,0)"
       rx="1.1103555" />
  </g>
</svg>
